<?xml version="1.0" encoding="UTF-8"?>
<svg version="1.1" xmlns="http://www.w3.org/2000/svg" width="1000" height="1000">
<path d="M0 0 C5 1 5 1 6.66796875 3.1171875 C7.42013672 4.48230469 7.42013672 4.48230469 8.1875 5.875 C17.72235041 21.70490218 32.80796868 33.33993001 50.40234375 39.1171875 C61.96420166 41.95429921 74.4088929 41.46886397 86 39 C85.5419453 43.31589316 82.72597827 45.58938275 79.8125 48.5 C72.85144408 55.7429257 67.83871626 64.0106978 66.625 74.125 C67.27846972 80.87752041 69.88831233 86.15227329 75 90.625 C80.34186728 93.05100086 86.31239396 92.89840679 92 92 C98.0825727 89.45553447 102.33617856 84.7546739 106.83984375 80.08984375 C116.60367088 70.64382654 125.55026449 66.44548534 139.05200195 66.58422852 C150.73353057 67.03325401 156.84981299 72.15544501 165 80 C166.46611275 81.30027492 167.93394205 82.59861523 169.40283203 83.89575195 C175.03845366 88.96042943 180.37207463 94.28535509 185.69109726 99.67706299 C187.41416786 101.42259272 189.14154262 103.16376033 190.87014771 104.90380859 C195.7774181 109.84426334 200.68034002 114.78897031 205.57275391 119.74414062 C208.58621041 122.79563446 211.60726493 125.83943589 214.63302994 128.87872314 C215.77031873 130.02395997 216.9048498 131.17194342 218.0363121 132.32293701 C224.46103938 138.85667742 230.90532776 144.72527907 238.42849731 149.97802734 C242.08174586 152.85057681 244.52378828 155.57136483 246 160 C246.56560467 166.2216514 246.39900577 171.58283455 243 177 C238.32072107 181.14143078 233.24871013 183.26539447 227 183 C220.21325402 181.59980046 215.96069725 178.80676306 211.27734375 173.828125 C210.68756241 173.2274823 210.09778107 172.6268396 209.49012756 172.00799561 C207.62441842 170.10246305 205.78052936 168.17745215 203.9375 166.25 C202.0867241 164.34133437 200.23159848 162.43703316 198.37416077 160.53485107 C197.22612702 159.35631423 196.08254432 158.17341642 194.94456482 156.98516846 C192.15766642 154.09621849 189.3134069 151.36723034 186.26416016 148.75537109 C181.49587103 144.63956448 177.08929524 140.18723369 172.663908 135.70850754 C171.14776964 134.17469579 169.62787337 132.64469627 168.10694885 131.1156311 C163.7890053 126.7734732 159.47689422 122.42555718 155.16918945 118.07324219 C152.51884078 115.39597104 149.86352505 112.72370798 147.20518684 110.05437088 C146.20144992 109.04447253 145.19960775 108.03268697 144.19979668 107.01890182 C135.11659817 96.84603451 135.11659817 96.84603451 123 92 C119.77888408 92.38333662 119.77888408 92.38333662 117 93 C121.82384876 98.66301466 126.87769348 104.00414332 132.16674805 109.23266602 C132.95138428 110.01262939 133.73602051 110.79259277 134.54443359 111.59619141 C136.23479748 113.27611731 137.92625951 114.95493883 139.6187191 116.63275337 C142.29930189 119.29117873 144.97578319 121.9536694 147.65107727 124.61741638 C155.25313747 132.18600152 162.85924643 139.75047291 170.47583008 147.30444336 C175.14608529 151.93640006 179.80836026 156.57629715 184.46631813 161.22062492 C186.23814162 162.9844072 188.01273564 164.74541093 189.79016685 166.50354195 C192.27420781 168.96106186 194.74877076 171.42777002 197.22143555 173.89672852 C197.95346695 174.61640305 198.68549835 175.33607758 199.43971252 176.07756042 C205.51181108 182.17368829 209.56752476 187.68586718 210.08984375 196.51171875 C209.88039687 202.3124866 208.02405594 206.3851049 203.8125 210.375 C198.71070028 214.30028406 193.72730519 215.29067098 187.375 214.875 C183.00871604 214.26417271 180.48031233 212.63145566 177 210 C176.34 210 175.68 210 175 210 C174.443125 210.886875 173.88625 211.77375 173.3125 212.6875 C170.67477101 216.85649489 166.86256857 220.0478193 162.14453125 221.6171875 C155.59046195 222.78713065 148.27119623 223.31254569 142.59375 219.40234375 C137.19455947 214.65158541 132.69803668 209.78338819 131.62890625 202.45703125 C131.42726569 194.42699233 133.22742228 188.06150599 138.78515625 182.078125 C143.81721344 177.59094024 147.75322658 176.8365478 154.4375 176.875 C155.75621094 176.87242187 157.07492187 176.86984375 158.43359375 176.8671875 C161.20238454 176.9702969 163.39077114 177.15917433 166 178 C166.99 176.68 167.98 175.36 169 174 C163.84212252 168.72559226 158.67030403 163.4652689 153.48091316 158.2218523 C151.07093635 155.78592838 148.6657714 153.34564217 146.27148438 150.89428711 C143.51030149 148.067718 140.72837242 145.2620687 137.9453125 142.45703125 C137.1001004 141.58601273 136.25488831 140.7149942 135.38406372 139.81758118 C129.37286209 133.80361138 123.22996343 129.00121773 114.71484375 127.37109375 C107.97819783 127.53216686 102.76978141 128.42359991 97 132 C96.31164062 132.41636719 95.62328125 132.83273437 94.9140625 133.26171875 C87.6548302 138.56012393 85.01616486 146.88520516 82 155 C81.70786621 155.76973145 81.41573242 156.53946289 81.11474609 157.33251953 C76.48497144 169.68284607 74.49144794 179.03088793 78 192 C66.84584877 191.27255535 58.49101468 184.90648272 51 177 C44.28817947 168.94068204 40.90440346 160.57551825 38.30200195 150.5390625 C33.56432445 132.40902288 24.56966755 117.91293994 9 107 C6.03 105.35 3.06 103.7 0 102 C0 68.34 0 34.68 0 0 Z " fill="#1309E8" transform="translate(351,261)"/>
<path d="M0 0 C0.99 0 1.98 0 3 0 C3.27816269 13.43848516 3.49131772 26.87628476 3.62174606 40.31706333 C3.68435051 46.55852051 3.76923904 52.79800719 3.90527344 59.03833008 C4.03576292 65.06205995 4.10742882 71.08389641 4.13852692 77.10893059 C4.16068355 79.40609496 4.20395522 81.70315666 4.26876068 83.99951363 C4.75787394 102.05070466 4.75787394 102.05070466 0.38049316 106.90475464 C-2.71403979 108.71952051 -5.6051531 109.87686569 -9 111 C-17.14350979 116.35864117 -22.37625836 125.06780183 -27.125 133.375 C-29.66023181 137.65490746 -31.70045712 140.42027427 -36 143 C-41.02453723 143.57716442 -43.00132089 143.63388248 -47.32107544 140.89204407 C-48.42355053 139.92253575 -49.50601958 138.9299509 -50.57080078 137.91918945 C-51.1662929 137.3810603 -51.76178501 136.84293116 -52.37532234 136.28849506 C-54.2763573 134.55142095 -56.14214629 132.78312715 -58 131 C-58.59829369 130.42707088 -59.19658737 129.85414177 -59.81301117 129.26385117 C-64.22935656 125.00421831 -68.55153968 120.65418371 -72.8671875 116.29296875 C-74.23996742 114.91389437 -75.61327988 113.53534991 -76.98709106 112.15730286 C-80.56220276 108.5690452 -84.13166176 104.97522425 -87.69940186 101.37963867 C-93.4267077 95.60878955 -99.16106829 89.84497062 -104.89865494 84.08434486 C-106.88402483 82.08886397 -108.86588857 80.08995155 -110.84738159 78.09062195 C-128.39293043 60.04622739 -128.39293043 60.04622739 -152.16796875 53.96875 C-167.79142278 54.70138559 -175.7007057 61.6518819 -186.26953125 72.296875 C-187.02741943 73.05911377 -187.78530762 73.82135254 -188.56616211 74.60668945 C-190.08793772 76.14294744 -191.60325749 77.68563134 -193.11157227 79.23510742 C-193.81467529 79.95029541 -194.51777832 80.6654834 -195.2421875 81.40234375 C-195.8697998 82.04679443 -196.49741211 82.69124512 -197.14404297 83.35522461 C-199.94388852 85.83648736 -202.16843116 86.8915345 -205.875 87.375 C-209.90106566 86.89187212 -211.91157177 85.59708738 -215 83 C-217.22704784 79.51418599 -217.39258449 76.22317172 -216.7109375 72.1484375 C-215.23785263 67.6968074 -212.03899776 64.48131764 -209 61 C-208.07092705 59.89098668 -207.14397849 58.78019145 -206.21875 57.66796875 C-191.23266983 39.76159962 -175.97425794 25.40568486 -152 22 C-148.28610976 21.69813705 -144.60001263 21.63010276 -140.875 21.625 C-139.9571875 21.60050781 -139.039375 21.57601563 -138.09375 21.55078125 C-123.19025475 21.48953401 -110.19894102 26.80597862 -97 33.125 C-94.98114358 34.08176028 -92.96045878 35.03408173 -90.93579102 35.97848511 C-89.1195695 36.82695421 -87.30954609 37.68865527 -85.5 38.55126953 C-71.07121443 44.52367561 -54.42534572 43.43376251 -40 38 C-22.99030131 30.72143126 -10.02413442 18.03921884 -1.32421875 1.8359375 C-0.88722656 1.23007812 -0.45023438 0.62421875 0 0 Z " fill="#1309E8" transform="translate(639,261)"/>
<path d="M0 0 C19.14 0 38.28 0 58 0 C58 4.29 58 8.58 58 13 C54.37 13.33 50.74 13.66 47 14 C53.93 45.68 53.93 45.68 61 78 C63.31 69.09 65.62 60.18 68 51 C69.9417541 44.25663904 71.90313463 37.52723536 73.9375 30.8125 C74.43601012 29.15313389 74.93405648 27.49362839 75.43164062 25.83398438 C76.61582978 21.88771808 77.80601053 17.94331158 79 14 C74.05 13.505 74.05 13.505 69 13 C69 8.71 69 4.42 69 0 C87.48 0 105.96 0 125 0 C125 4.29 125 8.58 125 13 C120 14 120 14 112 14 C117.28 35.12 122.56 56.24 128 78 C128.33 78 128.66 78 129 78 C129.23332031 76.80375 129.46664062 75.6075 129.70703125 74.375 C133.7810026 54.31927145 139.46031977 34.68904978 145 15 C141.7 14.34 138.4 13.68 135 13 C135 8.71 135 4.42 135 0 C147.21 0 159.42 0 172 0 C172 4.29 172 8.58 172 13 C167.76358987 13.84728203 164.27587998 14.08384078 160 14 C159.91462982 14.53017731 159.82925964 15.06035461 159.74130249 15.6065979 C158.21157823 24.13501739 155.53882125 32.28629287 152.9140625 40.5234375 C152.41040589 42.11693915 151.90718935 43.71057995 151.40438843 45.30435181 C150.0855982 49.48013928 148.76037642 53.65385867 147.43389893 57.82720947 C146.35990375 61.20997417 145.29051848 64.59418729 144.22138405 67.97849083 C142.93300813 72.05646846 141.6425823 76.13379621 140.3515625 80.2109375 C140.11057453 80.97213268 139.86958656 81.73332787 139.62129593 82.51758957 C138.92649112 84.71047045 138.23032464 86.90291421 137.53369141 89.09521484 C137.14001373 90.33524261 136.74633606 91.57527039 136.34072876 92.85287476 C134.59681401 98.24712982 132.79274165 103.62177504 131 109 C122.09 109 113.18 109 104 109 C99.61632181 93.52720854 95.63334608 77.96447531 91.6875 62.375 C91.03599212 59.80724476 90.38430072 57.23953608 89.73242188 54.671875 C88.15283477 48.44845106 86.57550254 42.22445916 85 36 C84.85653641 36.62640381 84.71307281 37.25280762 84.56526184 37.89819336 C81.06889203 53.06056115 77.12422382 68.01776685 72.62084961 82.91162109 C71.663118 86.08067808 70.71666706 89.2529611 69.77148438 92.42578125 C69.1646941 94.45071021 68.55729742 96.47545757 67.94921875 98.5 C67.5258448 99.91671997 67.5258448 99.91671997 67.09391785 101.36206055 C66.833069 102.22226807 66.57222015 103.08247559 66.3034668 103.96875 C66.07507614 104.72607422 65.84668549 105.48339844 65.6113739 106.26367188 C65 108 65 108 64 109 C62.00035018 109.08758003 59.9976389 109.10696576 57.99609375 109.09765625 C56.90224365 109.09515869 55.80839355 109.09266113 54.68139648 109.09008789 C53.26676412 109.08092389 51.852132 109.07172138 50.4375 109.0625 C48.04044756 109.05101209 45.64339338 109.03988579 43.24633789 109.02905273 C40.12316895 109.01452637 40.12316895 109.01452637 37 109 C30.85598573 89.28955043 24.98581774 69.50441109 19.17944336 49.69250488 C18.02712737 45.76208463 16.87284065 41.83224319 15.71875 37.90234375 C13.47730444 30.26877475 11.23793585 22.63459868 9 15 C4.545 14.01 4.545 14.01 0 13 C0 8.71 0 4.42 0 0 Z " fill="#1309E8" transform="translate(60,626)"/>
<path d="M0 0 C0 15.84 0 31.68 0 48 C2.31 45.03 4.62 42.06 7 39 C9.51171875 36.84375 9.51171875 36.84375 11.6875 35.5 C12.41324219 35.0359375 13.13898438 34.571875 13.88671875 34.09375 C20.64688952 30.59495552 29.63423154 31.05209148 36.8125 33.0625 C43.29701828 35.58817288 47.39526453 40.2537479 50.375 46.4375 C53.59466921 53.81474205 53.13891083 62.17510689 53.09765625 70.0625 C53.0962413 71.09439453 53.09482635 72.12628906 53.09336853 73.18945312 C53.08780642 76.45966589 53.07526102 79.7298082 53.0625 83 C53.0574801 85.22786359 53.05291805 87.45572826 53.04882812 89.68359375 C53.03784942 95.12241955 53.02114938 100.56120474 53 106 C55.64 106.33 58.28 106.66 61 107 C61 110.96 61 114.92 61 119 C44.5 119 28 119 11 119 C11 115.04 11 111.08 11 107 C13.31 106.67 15.62 106.34 18 106 C17.90777862 99.36115171 17.80047937 92.7226708 17.68261719 86.08422852 C17.64429779 83.82517041 17.60945019 81.56605068 17.578125 79.30688477 C17.53253893 76.06243843 17.47453362 72.81841752 17.4140625 69.57421875 C17.40251129 68.56163498 17.39096008 67.54905121 17.37905884 66.50578308 C17.35918915 65.56503433 17.33931946 64.62428558 17.31884766 63.6550293 C17.30552399 62.82674118 17.29220032 61.99845306 17.2784729 61.14506531 C17.12261241 58.70403867 17.12261241 58.70403867 15 56 C9.04758474 55.49555803 6.07537366 56.26417895 0 58 C0 73.84 0 89.68 0 106 C2.97 106.495 2.97 106.495 6 107 C6 110.96 6 114.92 6 119 C-10.17 119 -26.34 119 -43 119 C-43 115.04 -43 111.08 -43 107 C-40.36 106.67 -37.72 106.34 -35 106 C-35.33 77.29 -35.66 48.58 -36 19 C-38.64 18.34 -41.28 17.68 -44 17 C-44 13.37 -44 9.74 -44 6 C-40.20843916 5.20782381 -36.41675508 4.41624549 -32.625 3.625 C-31.56410156 3.40328125 -30.50320312 3.1815625 -29.41015625 2.953125 C-27.28641789 2.51013663 -25.16173265 2.07166381 -23.03613281 1.63769531 C-21.12855218 1.23703589 -19.22563274 0.81271249 -17.33105469 0.35449219 C-10.77969735 -1.17116637 -7.21862025 -0.72186202 0 0 Z " fill="#1309E8" transform="translate(279,616)"/>
<path d="M0 0 C0.33 23.43 0.66 46.86 1 71 C8.8012384 63.26962126 8.8012384 63.26962126 16 55 C17.21705849 53.85962609 18.46468843 52.7503538 19.75 51.6875 C20.36359375 51.17574219 20.9771875 50.66398438 21.609375 50.13671875 C22.06828125 49.76160156 22.5271875 49.38648438 23 49 C21.51129729 47.51129729 20.0656197 47.70656197 18 47.5 C14.11111111 47.11111111 14.11111111 47.11111111 13 46 C13 42.37 13 38.74 13 35 C27.85 35 42.7 35 58 35 C58 38.63 58 42.26 58 46 C56.18340852 47.81659148 53.01645847 47.30981161 50.5625 47.5 C42.43760214 48.56229512 38.3640297 52.05966959 33 58 C32.01 58.99 32.01 58.99 31 60 C31.31638428 60.65782471 31.63276855 61.31564941 31.95874023 61.9934082 C35.10900388 68.54520449 38.25434429 75.09934335 41.39599609 81.65527344 C42.41319255 83.77636804 43.43160097 85.8968822 44.45166016 88.01660156 C45.7213359 90.65521108 46.98630127 93.29602404 48.25 95.9375 C48.63212646 96.72874268 49.01425293 97.51998535 49.40795898 98.33520508 C52 103.77177043 52 103.77177043 52 106 C55.3 106.33 58.6 106.66 62 107 C62 110.96 62 114.92 62 119 C48.47 119 34.94 119 21 119 C16.05 106.46 11.1 93.92 6 81 C4.68 81.99 3.36 82.98 2 84 C1.34 84 0.68 84 0 84 C0 91.26 0 98.52 0 106 C2.64 106.33 5.28 106.66 8 107 C8 110.96 8 114.92 8 119 C-8.83 119 -25.66 119 -43 119 C-43 115.04 -43 111.08 -43 107 C-38.545 106.505 -38.545 106.505 -34 106 C-34.33 77.29 -34.66 48.58 -35 19 C-37.97 18.01 -40.94 17.02 -44 16 C-44 12.7 -44 9.4 -44 6 C-40.22953682 5.20653707 -36.45864972 4.41518793 -32.6875 3.625 C-31.1087207 3.29242187 -31.1087207 3.29242187 -29.49804688 2.953125 C-27.37411327 2.50873274 -25.24892493 2.07029752 -23.12255859 1.63769531 C-21.10153425 1.22495758 -19.08331579 0.79812485 -17.06884766 0.35449219 C-16.14507324 0.16274414 -15.22129883 -0.02900391 -14.26953125 -0.2265625 C-13.46749268 -0.40010254 -12.6654541 -0.57364258 -11.83911133 -0.75244141 C-9 -1 -9 -1 0 0 Z " fill="#1309E8" transform="translate(878,616)"/>
<path d="M0 0 C20.13 0 40.26 0 61 0 C61 4.29 61 8.58 61 13 C54.565 13.495 54.565 13.495 48 14 C48.06324661 21.63327196 48.1389318 29.26623477 48.23571491 36.8991518 C48.28018899 40.44454428 48.31949335 43.9898279 48.34643555 47.53540039 C48.37774286 51.62414451 48.43251974 55.71229692 48.48828125 59.80078125 C48.49467117 61.05643387 48.5010611 62.31208649 48.50764465 63.60578918 C48.64712477 72.06454338 49.01232679 81.39920608 54.1875 88.5 C59.09896049 92.86574265 64.4230397 94.58181746 70.98828125 94.28515625 C77.33344042 93.38574534 81.96048586 91.07824635 86 86 C89.20506001 79.70434642 90.10023555 73.89860467 90.20532227 66.90283203 C90.22526749 65.72206085 90.24521271 64.54128967 90.26576233 63.32473755 C90.28247482 62.06515228 90.29918732 60.80556702 90.31640625 59.5078125 C90.3475779 57.55619705 90.3475779 57.55619705 90.37937927 55.56515503 C90.43431116 52.12277281 90.48384652 48.6803337 90.53222656 45.237854 C90.58265387 41.71841427 90.6382286 38.19905614 90.69335938 34.6796875 C90.8005871 27.78652777 90.90163285 20.89329181 91 14 C84.07 13.505 84.07 13.505 77 13 C77 8.71 77 4.42 77 0 C90.53 0 104.06 0 118 0 C118 4.29 118 8.58 118 13 C114.04 13.33 110.08 13.66 106 14 C106.01047363 15.59279785 106.02094727 17.1855957 106.03173828 18.82666016 C106.06822006 24.79424754 106.09100213 30.76182527 106.10986328 36.72949219 C106.1198571 39.30144921 106.13345666 41.87339507 106.15087891 44.4453125 C106.17542053 48.16409074 106.18654966 51.88271743 106.1953125 55.6015625 C106.20563507 56.73236237 106.21595764 57.86316223 106.22659302 59.02822876 C106.22874799 74.72148585 104.37567515 88.46103664 93.75 100.5625 C83.36152173 109.77046937 72.42898777 112.18049237 58.875 112.25 C57.89273438 112.270625 56.91046875 112.29125 55.8984375 112.3125 C44.42162373 112.37290428 32.27632379 109.53442084 23.5078125 101.65234375 C12.85677288 89.98034955 11.52411248 76.39650638 11.70703125 61.16796875 C11.71264534 59.79649832 11.71690683 58.42502176 11.71989441 57.05354309 C11.73120095 53.49102363 11.76054034 49.92888708 11.79400635 46.36651611 C11.82501859 42.71249568 11.83846541 39.05841174 11.85351562 35.40429688 C11.88542823 28.2693621 11.9380747 21.13474677 12 14 C8.04 13.67 4.08 13.34 0 13 C0 8.71 0 4.42 0 0 Z " fill="#1309E8" transform="translate(547,626)"/>
<path d="M0 0 C6.26596716 4.35680529 10.10424555 9.99880482 12 17.390625 C12.39343603 21.59389886 12.35027139 25.76585714 12.29296875 29.984375 C12.28872391 31.17164185 12.28447906 32.35890869 12.28010559 33.58215332 C12.26339339 37.3518804 12.22575381 41.12106112 12.1875 44.890625 C12.17244358 47.45572141 12.15875685 50.02082626 12.14648438 52.5859375 C12.11351423 58.85435119 12.06338896 65.12244905 12 71.390625 C14.97 71.720625 17.94 72.050625 21 72.390625 C21 76.350625 21 80.310625 21 84.390625 C4.5 84.390625 -12 84.390625 -29 84.390625 C-29 80.430625 -29 76.470625 -29 72.390625 C-26.69 72.060625 -24.38 71.730625 -22 71.390625 C-22.11767829 64.91262779 -22.24250822 58.43479672 -22.37231445 51.95703125 C-22.4156301 49.753287 -22.45730759 47.54950992 -22.49731445 45.34570312 C-22.55509844 42.17828476 -22.61876976 39.01103114 -22.68359375 35.84375 C-22.70030624 34.85820129 -22.71701874 33.87265259 -22.73423767 32.85723877 C-22.7641555 31.47626007 -22.7641555 31.47626007 -22.79467773 30.06738281 C-22.81799416 28.85492889 -22.81799416 28.85492889 -22.84178162 27.61798096 C-22.99702135 25.43255769 -23.40008809 23.49353919 -24 21.390625 C-25.52040718 21.33555995 -27.04142704 21.29736125 -28.5625 21.265625 C-29.40941406 21.24242187 -30.25632812 21.21921875 -31.12890625 21.1953125 C-34.74938622 21.34121343 -34.74938622 21.34121343 -41 23.390625 C-41 39.230625 -41 55.070625 -41 71.390625 C-38.69 71.720625 -36.38 72.050625 -34 72.390625 C-34 76.350625 -34 80.310625 -34 84.390625 C-50.5 84.390625 -67 84.390625 -84 84.390625 C-84 80.430625 -84 76.470625 -84 72.390625 C-79.545 71.895625 -79.545 71.895625 -75 71.390625 C-75 54.890625 -75 38.390625 -75 21.390625 C-78.3 21.060625 -81.6 20.730625 -85 20.390625 C-85 16.760625 -85 13.130625 -85 9.390625 C-80.45402051 7.78415967 -75.90101847 6.2002125 -71.34033203 4.63598633 C-69.79234472 4.10163519 -68.24638911 3.56135796 -66.70263672 3.01489258 C-64.47360528 2.22703285 -62.23795511 1.46130422 -60 0.69921875 C-59.31945557 0.45344589 -58.63891113 0.20767303 -57.93774414 -0.04554749 C-52.89769519 -1.72767843 -49.22564974 -1.57132322 -44 -0.609375 C-43.34 4.010625 -42.68 8.630625 -42 13.390625 C-40.700625 11.84375 -39.40125 10.296875 -38.0625 8.703125 C-28.43854365 -2.01377276 -13.59250911 -7.09608931 0 0 Z " fill="#1309E8" transform="translate(751,650.609375)"/>
<path d="M0 0 C25.08 0 50.16 0 76 0 C76 11.47083411 76 11.47083411 71.6875 17.5625 C71.0080835 18.58355835 71.0080835 18.58355835 70.31494141 19.62524414 C69.3628929 21.054626 68.40182347 22.47803777 67.43212891 23.89550781 C65.63245975 26.54009494 63.90157974 29.22531289 62.1730957 31.91674805 C60.83834969 33.99455372 59.49410574 36.06597225 58.1484375 38.13671875 C54.60640136 43.59881327 51.09218242 49.07872122 47.581604 54.56106567 C46.51962232 56.21935957 45.45684014 57.87714074 44.39404297 59.53491211 C43.73807129 60.55979736 43.08209961 61.58468262 42.40625 62.640625 C41.82166016 63.55360352 41.23707031 64.46658203 40.63476562 65.40722656 C39.05329384 67.91547482 37.52557859 70.45736902 36 73 C42.6 73 49.2 73 56 73 C57.98 63.595 57.98 63.595 60 54 C65.61 54 71.22 54 77 54 C77.020625 56.35125 77.04125 58.7025 77.0625 61.125 C77.071604 61.83285645 77.08070801 62.54071289 77.09008789 63.27001953 C77.11849044 70.26071129 76.50379706 76.94684111 76 84 C49.93 84 23.86 84 -3 84 C-3 72.52294244 -3 72.52294244 1.125 66.6875 C1.57093506 66.01638184 2.01687012 65.34526367 2.47631836 64.65380859 C3.45099434 63.19237548 4.43603312 61.73781193 5.43017578 60.28955078 C7.03723096 57.94569954 8.61370246 55.58372733 10.18359375 53.21484375 C12.48135472 49.7500302 14.78977586 46.29269606 17.10546875 42.83984375 C21.5775769 36.15437372 25.97806364 29.42252925 30.375 22.6875 C30.7577005 22.10139954 31.140401 21.51529907 31.53469849 20.91143799 C33.69110033 17.60847173 35.84576352 14.30437968 38 11 C32.06 11.33 26.12 11.66 20 12 C18.35 17.61 16.7 23.22 15 29 C2.67857143 29.13392857 2.67857143 29.13392857 -1 28 C-1.02747734 25.39575884 -1.04706373 22.79181958 -1.0625 20.1875 C-1.07087891 19.46884766 -1.07925781 18.75019531 -1.08789062 18.00976562 C-1.11486596 11.88636504 -0.5617641 6.17940514 0 0 Z " fill="#1309E8" transform="translate(405,651)"/>
<path d="M0 0 C0 23.76 0 47.52 0 72 C2.64 72.33 5.28 72.66 8 73 C8 76.96 8 80.92 8 85 C-8.83 85 -25.66 85 -43 85 C-43 81.04 -43 77.08 -43 73 C-40.36 72.67 -37.72 72.34 -35 72 C-35 55.5 -35 39 -35 22 C-38.3 21.67 -41.6 21.34 -45 21 C-45 17.7 -45 14.4 -45 11 C-37.67769476 7.53442177 -30.25201917 5.01992821 -22.5 2.6875 C-21.32824219 2.31560547 -20.15648437 1.94371094 -18.94921875 1.56054688 C-17.80066406 1.21443359 -16.65210938 0.86832031 -15.46875 0.51171875 C-14.44201172 0.19678467 -13.41527344 -0.11814941 -12.35742188 -0.44262695 C-9 -1 -9 -1 0 0 Z " fill="#1309E8" transform="translate(821,650)"/>
<path d="M0 0 C0 23.76 0 47.52 0 72 C2.97 72.33 5.94 72.66 9 73 C9 76.96 9 80.92 9 85 C-8.16 85 -25.32 85 -43 85 C-43 81.04 -43 77.08 -43 73 C-38.545 72.505 -38.545 72.505 -34 72 C-34 55.5 -34 39 -34 22 C-37.3 21.67 -40.6 21.34 -44 21 C-44 17.37 -44 13.74 -44 10 C-40.04203428 8.72801254 -36.0836422 7.45737904 -32.125 6.1875 C-31.01640625 5.83107422 -29.9078125 5.47464844 -28.765625 5.10742188 C-26.55695545 4.3993484 -24.34633516 3.69733049 -22.13378906 3.00146484 C-20.16830244 2.37335436 -18.21022519 1.72099887 -16.26464844 1.03369141 C-15.43223633 0.75058105 -14.59982422 0.4674707 -13.7421875 0.17578125 C-13.03690918 -0.07647217 -12.33163086 -0.32872559 -11.60498047 -0.58862305 C-9 -1 -9 -1 0 0 Z " fill="#1309E8" transform="translate(389,650)"/>
<path d="M0 0 C5.64915645 3.3180919 9.96670927 7.59407984 11.7265625 14.046875 C12.73045129 23.31276855 9.22631301 31.50087803 6.2265625 40.109375 C5.4339645 42.38924276 4.64589502 44.67012991 3.87268066 46.95664978 C3.39444405 48.37085447 2.90548377 49.78149794 2.40368652 51.18751526 C-0.61582076 60.11396472 0.79838595 67.58006203 4.7265625 76.046875 C6.80966184 78.99002315 6.80966184 78.99002315 8.7265625 81.046875 C8.7265625 81.706875 8.7265625 82.366875 8.7265625 83.046875 C-4.3108964 84.10635247 -15.33745989 79.72980351 -25.203125 71.421875 C-29.72515216 67.22978115 -32.56190079 62.54838129 -35.2734375 57.046875 C-35.6034375 56.386875 -35.9334375 55.726875 -36.2734375 55.046875 C-37.33974051 44.7752255 -35.43498113 36.61910766 -31.84838867 27.13061523 C-31.08051117 25.09498994 -30.34969372 23.04870818 -29.62304688 20.99804688 C-23.47135004 3.96993426 -23.47135004 3.96993426 -16.5859375 0.609375 C-11.16790211 -1.73741999 -5.52185893 -2.31500615 0 0 Z " fill="#1309E8" transform="translate(474.2734375,398.953125)"/>
<path d="M0 0 C1.330811 0.05867249 1.330811 0.05867249 2.68850708 0.11853027 C11.34237165 0.51642791 19.73254929 1.09034048 28.1875 3.125 C28.1875 3.785 28.1875 4.445 28.1875 5.125 C23.31039571 5.89893288 18.58155266 6.29992055 13.63500977 6.43701172 C12.55330285 6.46774717 12.55330285 6.46774717 11.44974327 6.49910355 C9.07206781 6.56443814 6.6942953 6.6226858 4.31640625 6.6796875 C3.07191302 6.7110914 3.07191302 6.7110914 1.80227852 6.74312973 C-16.35834409 7.19550745 -34.51544077 7.27943873 -52.6809082 7.25537109 C-57.01131586 7.24967011 -61.34166206 7.25307832 -65.67206764 7.25880814 C-83.61909531 7.27893399 -101.55456409 7.14414965 -119.49609375 6.6796875 C-120.28660692 6.66027225 -121.07712009 6.64085701 -121.89158821 6.62085342 C-124.11857527 6.56466044 -126.34527948 6.50213235 -128.57202148 6.43701172 C-129.83014145 6.4011496 -131.08826141 6.36528748 -132.38450623 6.32833862 C-135.59524802 6.13788676 -138.65437755 5.72067943 -141.8125 5.125 C-141.8125 4.465 -141.8125 3.805 -141.8125 3.125 C-134.38134495 0.88907724 -126.96923798 0.41420665 -119.25 0 C-118.49373322 -0.04169312 -117.73746643 -0.08338623 -116.95828247 -0.12634277 C-78.15073685 -2.16705853 -38.81041058 -1.76906248 0 0 Z " fill="#1309E8" transform="translate(553.8125,528.875)"/>
<path d="M0 0 C15.51 0 31.02 0 47 0 C47 6.6 47 13.2 47 20 C31.49 20 15.98 20 0 20 C0 13.4 0 6.8 0 0 Z " fill="#1309E8" transform="translate(491,680)"/>
<path d="M0 0 C4.98276405 2.60849828 8.24200262 5.9486641 10.015625 11.26953125 C10.60035686 17.23379623 9.40670946 21.42512488 6.015625 26.26953125 C1.78600378 30.0185137 -2.37747215 31.35368739 -7.984375 31.26953125 C-12.39603854 30.81287107 -15.27138724 29.82407728 -18.796875 27.08203125 C-22.18172318 22.73008359 -24.35993538 18.8056566 -23.921875 13.20703125 C-23.04274887 8.47257072 -21.2385908 4.91174276 -17.2578125 2.01171875 C-11.77799784 -1.11024737 -6.03755831 -2.22248702 0 0 Z " fill="#1309E8" transform="translate(809.984375,610.73046875)"/>
<path d="M0 0 C3.83084349 2.61193874 6.65161815 5.67823629 8.75 9.875 C9.29035594 14.8002115 9.29435469 18.74441718 7.125 23.25 C3.00571707 27.80289166 -0.81849522 30.48728891 -7.1015625 30.96875 C-11.82466665 30.76265091 -16.31823932 29.60027795 -19.89453125 26.40625 C-23.91379776 21.68042655 -24.6152491 18.51069335 -24.51953125 12.48046875 C-24.10891211 8.51115035 -22.99159587 5.78649759 -20.25 2.875 C-14.06256411 -1.83192076 -7.24550253 -2.50805857 0 0 Z " fill="#1309E8" transform="translate(379.25,611.125)"/>
</svg>
